<svg xmlns="http://www.w3.org/2000/svg" viewBox="0 0 200 130" preserveAspectRatio="xMidYMid slice">
<defs><filter id="grain"><feTurbulence type="fractalNoise" baseFrequency=".7" numOctaves="3" seed="9"/><feColorMatrix type="saturate" values="0"/></filter><filter id="brush"><feTurbulence type="fractalNoise" baseFrequency=".045 .18" numOctaves="2" seed="4"/><feDisplacementMap in="SourceGraphic" scale="3"/></filter></defs>
<rect width="200" height="130" fill="#c6c1b1"/><path d="M0 80H200V130H0Z" fill="#aaa693"/><ellipse cx="110" cy="106" rx="70" ry="8" fill="#293b34" opacity=".22"/>
<g filter="url(#brush)" stroke="#36473f" stroke-width="0" stroke-linejoin="round">
<path d="M109 33H139V94Q124 102 109 94Z" fill="#637a78"/><ellipse cx="124" cy="33" rx="15" ry="6" fill="#b5bcb0"/>
<circle cx="71" cy="78" r="27" fill="#ad7952"/><path d="M91 61Q109 98 73 105L59 101Q89 98 91 61" fill="#785a49" stroke="none"/>
<path d="M133 104L155 69L179 103Z" fill="#ded5b7"/><path d="M155 69L160 100L179 103Z" fill="#888e7c"/>
<path d="M49 73L55 60L71 55L80 62L62 63L54 81" fill="none" stroke="#d0a777" stroke-width="5"/>


</g>



<rect width="200" height="130" filter="url(#grain)" opacity="0.14" style="mix-blend-mode:multiply"/>
</svg>
